<svg xmlns="http://www.w3.org/2000/svg" version="1.1" xmlns:xlink="http://www.w3.org/1999/xlink" xmlns:svgjs="http://svgjs.dev/svgjs" viewBox="0 0 800 800"><defs><linearGradient x1="50%" y1="0%" x2="50%" y2="100%" id="ffflurry-grad" gradientTransform="rotate(270)"><stop stop-color="hsl(18, 100%, 50%)" stop-opacity="1" offset="0%"></stop><stop stop-color="hsl(0, 0%, 100%)" stop-opacity="1" offset="45%"></stop><stop stop-color="hsl(0, 0%, 100%)" stop-opacity="1" offset="100%"></stop></linearGradient></defs><rect width="100%" height="100%" fill="hsl(18, 100%, 50%)"></rect><g fill="url(#ffflurry-grad)"><rect width="47" height="3" x="29.5" y="413.5" rx="1.5" transform="rotate(45, 53, 415)" opacity="0.07"></rect><rect width="532" height="3" x="-222" y="45.5" rx="1.5" transform="rotate(45, 44, 47)" opacity="0.41"></rect><rect width="128" height="3" x="506" y="152.5" rx="1.5" transform="rotate(45, 570, 154)" opacity="0.37"></rect><rect width="454" height="3" x="107" y="44.5" rx="1.5" transform="rotate(45, 334, 46)" opacity="0.88"></rect><rect width="252" height="3" x="361" y="511.5" rx="1.5" transform="rotate(45, 487, 513)" opacity="0.74"></rect><rect width="219" height="3" x="545.5" y="215.5" rx="1.5" transform="rotate(45, 655, 217)" opacity="0.77"></rect><rect width="679" height="3" x="228.5" y="240.5" rx="1.5" transform="rotate(45, 568, 242)" opacity="0.39"></rect><rect width="529" height="3" x="1.5" y="388.5" rx="1.5" transform="rotate(45, 266, 390)" opacity="0.44"></rect><rect width="272" height="3" x="290" y="38.5" rx="1.5" transform="rotate(45, 426, 40)" opacity="0.24"></rect><rect width="370" height="3" x="426" y="552.5" rx="1.5" transform="rotate(45, 611, 554)" opacity="0.83"></rect><rect width="355" height="3" x="315.5" y="71.5" rx="1.5" transform="rotate(45, 493, 73)" opacity="0.91"></rect><rect width="364" height="3" x="152" y="297.5" rx="1.5" transform="rotate(45, 334, 299)" opacity="0.66"></rect><rect width="280" height="3" x="587" y="455.5" rx="1.5" transform="rotate(45, 727, 457)" opacity="0.66"></rect><rect width="296" height="3" x="410" y="20.5" rx="1.5" transform="rotate(45, 558, 22)" opacity="0.53"></rect><rect width="49" height="3" x="210.5" y="563.5" rx="1.5" transform="rotate(45, 235, 565)" opacity="0.98"></rect><rect width="297" height="3" x="526.5" y="140.5" rx="1.5" transform="rotate(45, 675, 142)" opacity="0.99"></rect><rect width="296" height="3" x="61" y="668.5" rx="1.5" transform="rotate(45, 209, 670)" opacity="0.38"></rect><rect width="161" height="3" x="624.5" y="296.5" rx="1.5" transform="rotate(45, 705, 298)" opacity="0.21"></rect><rect width="333" height="3" x="322.5" y="425.5" rx="1.5" transform="rotate(45, 489, 427)" opacity="0.79"></rect><rect width="491" height="3" x="173.5" y="597.5" rx="1.5" transform="rotate(45, 419, 599)" opacity="0.99"></rect><rect width="151" height="3" x="308.5" y="129.5" rx="1.5" transform="rotate(45, 384, 131)" opacity="0.32"></rect><rect width="137" height="3" x="688.5" y="220.5" rx="1.5" transform="rotate(45, 757, 222)" opacity="0.13"></rect><rect width="533" height="3" x="134.5" y="760.5" rx="1.5" transform="rotate(45, 401, 762)" opacity="0.44"></rect><rect width="321" height="3" x="-40.5" y="707.5" rx="1.5" transform="rotate(45, 120, 709)" opacity="0.58"></rect><rect width="27" height="3" x="717.5" y="525.5" rx="1.5" transform="rotate(45, 731, 527)" opacity="0.38"></rect><rect width="434" height="3" x="72" y="630.5" rx="1.5" transform="rotate(45, 289, 632)" opacity="0.33"></rect><rect width="400" height="3" x="319" y="756.5" rx="1.5" transform="rotate(45, 519, 758)" opacity="0.28"></rect><rect width="429" height="3" x="545.5" y="593.5" rx="1.5" transform="rotate(45, 760, 595)" opacity="0.55"></rect><rect width="683" height="3" x="105.5" y="685.5" rx="1.5" transform="rotate(45, 447, 687)" opacity="0.67"></rect><rect width="566" height="3" x="13" y="753.5" rx="1.5" transform="rotate(45, 296, 755)" opacity="0.93"></rect><rect width="129" height="3" x="-12.5" y="764.5" rx="1.5" transform="rotate(45, 52, 766)" opacity="0.61"></rect><rect width="476" height="3" x="-92" y="66.5" rx="1.5" transform="rotate(45, 146, 68)" opacity="0.65"></rect><rect width="99" height="3" x="71.5" y="190.5" rx="1.5" transform="rotate(45, 121, 192)" opacity="0.74"></rect><rect width="536" height="3" x="-223" y="509.5" rx="1.5" transform="rotate(45, 45, 511)" opacity="0.74"></rect><rect width="287" height="3" x="135.5" y="102.5" rx="1.5" transform="rotate(45, 279, 104)" opacity="0.54"></rect><rect width="166" height="3" x="594" y="535.5" rx="1.5" transform="rotate(45, 677, 537)" opacity="0.45"></rect><rect width="243" height="3" x="651.5" y="318.5" rx="1.5" transform="rotate(45, 773, 320)" opacity="0.77"></rect><rect width="318" height="3" x="602" y="39.5" rx="1.5" transform="rotate(45, 761, 41)" opacity="0.10"></rect><rect width="537" height="3" x="-232.5" y="210.5" rx="1.5" transform="rotate(45, 36, 212)" opacity="0.34"></rect><rect width="183" height="3" x="257.5" y="569.5" rx="1.5" transform="rotate(45, 349, 571)" opacity="0.85"></rect><rect width="431" height="3" x="-77.5" y="584.5" rx="1.5" transform="rotate(45, 138, 586)" opacity="0.85"></rect><rect width="311" height="3" x="59.5" y="30.5" rx="1.5" transform="rotate(45, 215, 32)" opacity="0.52"></rect><rect width="280" height="3" x="-103" y="684.5" rx="1.5" transform="rotate(45, 37, 686)" opacity="0.86"></rect><rect width="707" height="3" x="-294.5" y="313.5" rx="1.5" transform="rotate(45, 59, 315)" opacity="0.30"></rect><rect width="308" height="3" x="-14" y="484.5" rx="1.5" transform="rotate(45, 140, 486)" opacity="0.91"></rect><rect width="447" height="3" x="6.5" y="167.5" rx="1.5" transform="rotate(45, 230, 169)" opacity="0.13"></rect><rect width="478" height="3" x="429" y="637.5" rx="1.5" transform="rotate(45, 668, 639)" opacity="0.45"></rect><rect width="244" height="3" x="365" y="264.5" rx="1.5" transform="rotate(45, 487, 266)" opacity="1.00"></rect><rect width="675" height="3" x="289.5" y="423.5" rx="1.5" transform="rotate(45, 627, 425)" opacity="0.47"></rect><rect width="326" height="3" x="578" y="753.5" rx="1.5" transform="rotate(45, 741, 755)" opacity="0.77"></rect><rect width="470" height="3" x="521" y="125.5" rx="1.5" transform="rotate(45, 756, 127)" opacity="0.11"></rect><rect width="55" height="3" x="184.5" y="454.5" rx="1.5" transform="rotate(45, 212, 456)" opacity="0.25"></rect><rect width="250" height="3" x="349" y="167.5" rx="1.5" transform="rotate(45, 474, 169)" opacity="0.46"></rect><rect width="245" height="3" x="657.5" y="508.5" rx="1.5" transform="rotate(45, 780, 510)" opacity="0.52"></rect><rect width="165" height="3" x="112.5" y="760.5" rx="1.5" transform="rotate(45, 195, 762)" opacity="0.91"></rect><rect width="531" height="3" x="417.5" y="38.5" rx="1.5" transform="rotate(45, 683, 40)" opacity="0.45"></rect><rect width="467" height="3" x="-78.5" y="364.5" rx="1.5" transform="rotate(45, 155, 366)" opacity="0.44"></rect><rect width="336" height="3" x="-119" y="605.5" rx="1.5" transform="rotate(45, 49, 607)" opacity="0.21"></rect><rect width="450" height="3" x="407" y="740.5" rx="1.5" transform="rotate(45, 632, 742)" opacity="0.48"></rect><rect width="64" height="3" x="142" y="259.5" rx="1.5" transform="rotate(45, 174, 261)" opacity="0.72"></rect><rect width="415" height="3" x="330.5" y="355.5" rx="1.5" transform="rotate(45, 538, 357)" opacity="0.46"></rect><rect width="452" height="3" x="75" y="491.5" rx="1.5" transform="rotate(45, 301, 493)" opacity="0.62"></rect><rect width="230" height="3" x="513" y="67.5" rx="1.5" transform="rotate(45, 628, 69)" opacity="0.15"></rect><rect width="464" height="3" x="138" y="213.5" rx="1.5" transform="rotate(45, 370, 215)" opacity="0.75"></rect><rect width="192" height="3" x="471" y="82.5" rx="1.5" transform="rotate(45, 567, 84)" opacity="1.00"></rect><rect width="204" height="3" x="525" y="315.5" rx="1.5" transform="rotate(45, 627, 317)" opacity="0.26"></rect><rect width="107" height="3" x="685.5" y="388.5" rx="1.5" transform="rotate(45, 739, 390)" opacity="0.14"></rect><rect width="130" height="3" x="306" y="418.5" rx="1.5" transform="rotate(45, 371, 420)" opacity="0.22"></rect><rect width="392" height="3" x="364" y="658.5" rx="1.5" transform="rotate(45, 560, 660)" opacity="0.96"></rect><rect width="300" height="3" x="272" y="327.5" rx="1.5" transform="rotate(45, 422, 329)" opacity="0.25"></rect><rect width="260" height="3" x="371" y="597.5" rx="1.5" transform="rotate(45, 501, 599)" opacity="0.76"></rect><rect width="265" height="3" x="214.5" y="680.5" rx="1.5" transform="rotate(45, 347, 682)" opacity="0.63"></rect><rect width="376" height="3" x="567" y="671.5" rx="1.5" transform="rotate(45, 755, 673)" opacity="0.71"></rect><rect width="512" height="3" x="159" y="504.5" rx="1.5" transform="rotate(45, 415, 506)" opacity="0.52"></rect><rect width="482" height="3" x="16" y="289.5" rx="1.5" transform="rotate(45, 257, 291)" opacity="0.74"></rect><rect width="394" height="3" x="360" y="508.5" rx="1.5" transform="rotate(45, 557, 510)" opacity="0.61"></rect><rect width="557" height="3" x="-204.5" y="118.5" rx="1.5" transform="rotate(45, 74, 120)" opacity="0.75"></rect></g></svg>